<svg width="256" height="154" viewBox="0 0 256 154" fill="none" xmlns="http://www.w3.org/2000/svg">
<g clip-path="url(#clip0_2_21)">
<path d="M147.168 114.504C147.04 114.632 146.816 114.76 146.496 114.888C146.24 115.016 146.016 115.08 145.824 115.08C144.928 115.08 144.32 114.696 144 113.928C143.936 113.736 143.872 113.576 143.808 113.448C143.744 113.32 143.648 113.192 143.52 113.064C143.392 112.168 143.52 111.496 143.904 111.048C144.224 110.536 144.64 110.28 145.152 110.28H145.44C146.016 110.408 146.432 110.632 146.688 110.952C146.688 111.272 146.752 111.528 146.88 111.72C147.008 111.912 147.136 112.104 147.264 112.296C147.392 112.744 147.424 113.096 147.36 113.352C147.296 113.48 147.264 113.64 147.264 113.832C147.264 114.024 147.232 114.248 147.168 114.504ZM193.536 90.024C193.152 90.216 192.8 90.312 192.48 90.312C192.224 90.312 192.032 90.28 191.904 90.216L190.272 89.928C189.824 89.288 189.76 88.68 190.08 88.104C190.4 87.528 190.912 87.208 191.616 87.144C192 86.76 192.384 86.568 192.768 86.568C193.088 86.76 193.312 86.92 193.44 87.048C193.568 87.112 193.696 87.176 193.824 87.24C193.824 87.496 193.888 87.752 194.016 88.008C194.144 88.328 194.112 88.616 193.92 88.872C193.856 89.448 193.728 89.832 193.536 90.024ZM147.072 52.776L147.36 52.488C147.872 52.488 148.32 52.584 148.704 52.776C148.96 52.904 149.184 53 149.376 53.064C149.568 53.064 149.824 53.128 150.144 53.256C150.72 53.64 151.008 53.96 151.008 54.216C151.2 54.28 151.36 54.344 151.488 54.408C151.68 54.472 151.872 54.568 152.064 54.696C152.256 54.76 152.448 54.824 152.64 54.888C152.832 54.888 153.088 54.888 153.408 54.888C153.92 55.016 154.208 55.08 154.272 55.08C155.168 55.272 155.744 55.368 156 55.368L157.152 55.656C157.344 55.72 157.728 55.752 158.304 55.752C158.624 55.752 158.944 55.752 159.264 55.752C159.648 55.688 160 55.624 160.32 55.56C160.832 55.24 161.152 55.08 161.28 55.08C161.856 54.952 162.24 54.856 162.432 54.792C163.136 54.728 163.648 54.696 163.968 54.696C164.352 54.696 164.64 54.664 164.832 54.6C164.96 54.6 165.12 54.632 165.312 54.696C165.504 54.696 165.696 54.696 165.888 54.696C166.144 54.696 166.528 54.632 167.04 54.504C167.232 54.504 167.584 54.44 168.096 54.312C168.608 54.312 168.992 54.344 169.248 54.408C169.376 54.472 169.728 54.504 170.304 54.504C170.56 54.504 170.816 54.44 171.072 54.312C171.264 54.248 171.52 54.216 171.84 54.216C172.096 54.216 172.32 54.184 172.512 54.12H174.24C175.008 54.12 175.456 54.152 175.584 54.216C176.288 54.344 176.896 54.44 177.408 54.504C177.92 54.568 178.336 54.632 178.656 54.696C179.424 54.696 180.224 54.888 181.056 55.272C181.376 55.208 181.888 55.176 182.592 55.176C183.296 55.176 184 55.272 184.704 55.464C185.408 55.592 186.016 55.88 186.528 56.328C187.744 56.52 188.64 57.128 189.216 58.152C189.92 58.6 190.432 59.176 190.752 59.88C190.944 60.264 191.136 60.616 191.328 60.936C191.584 61.256 191.808 61.576 192 61.896C192.064 62.216 192.128 62.504 192.192 62.76C192.256 63.016 192.352 63.272 192.48 63.528C192.608 63.848 192.672 64.136 192.672 64.392C192.736 64.648 192.832 64.936 192.96 65.256C192.896 65.64 192.896 66.024 192.96 66.408C193.216 67.112 193.248 68.04 193.056 69.192C193.12 69.704 193.12 70.056 193.056 70.248L192.768 70.92C192.704 71.112 192.736 71.496 192.864 72.072C192.928 72.392 192.96 72.776 192.96 73.224C192.832 73.672 192.768 73.96 192.768 74.088C192.768 74.216 192.736 74.344 192.672 74.472C192.544 75.304 192.512 75.752 192.576 75.816C192.576 76.2 192.512 76.584 192.384 76.968C192.256 77.48 192.192 77.896 192.192 78.216C192.064 78.6 191.904 78.888 191.712 79.08C191.584 79.592 191.392 80.04 191.136 80.424C190.944 80.744 190.688 81.064 190.368 81.384C190.24 81.64 190.112 81.896 189.984 82.152C189.856 82.408 189.664 82.6 189.408 82.728C189.024 83.112 188.704 83.56 188.448 84.072C187.872 84.904 187.104 85.64 186.144 86.28C184.864 87.56 183.488 88.392 182.016 88.776C181.696 88.968 181.312 89.128 180.864 89.256C180.416 89.32 179.968 89.384 179.52 89.448C178.752 89.768 178.272 89.928 178.08 89.928L177.408 90.024C177.856 90.536 178.112 90.888 178.176 91.08C178.304 91.272 178.4 91.464 178.464 91.656C178.528 91.912 178.56 92.136 178.56 92.328C178.56 92.52 178.624 92.712 178.752 92.904C179.712 94.376 180.064 95.784 179.808 97.128C179.616 97.576 179.584 97.96 179.712 98.28C179.776 98.6 179.744 98.952 179.616 99.336C179.616 99.912 179.584 100.328 179.52 100.584C179.264 100.968 179.168 101.448 179.232 102.024V102.984C179.232 103.304 179.232 103.656 179.232 104.04C179.296 104.424 179.424 104.68 179.616 104.808C179.616 105 179.808 105.224 180.192 105.48C180.576 105.928 181.056 106.28 181.632 106.536L183.264 107.112C183.84 107.368 184.448 107.496 185.088 107.496C185.984 107.496 186.784 107.144 187.488 106.44C188.064 105.864 188.64 105.384 189.216 105C189.28 104.68 189.312 104.424 189.312 104.232C189.376 103.976 189.376 103.72 189.312 103.464C189.184 102.824 189.12 102.28 189.12 101.832C188.672 101.64 188.288 101.512 187.968 101.448C187.712 101.32 187.328 101.256 186.816 101.256C186.432 101.256 186.048 101.16 185.664 100.968C185.472 100.776 185.344 100.584 185.28 100.392C185.152 100.328 185.056 100.264 184.992 100.2C184.928 100.136 184.832 100.04 184.704 99.912C184.512 99.208 184.512 98.568 184.704 97.992C184.96 97.416 185.248 96.904 185.568 96.456C185.824 96.2 186.048 96.072 186.24 96.072C186.496 95.944 186.752 95.784 187.008 95.592C187.328 95.4 187.648 95.144 187.968 94.824C188.096 94.696 188.288 94.632 188.544 94.632C188.864 94.632 189.12 94.696 189.312 94.824C189.696 94.632 190.048 94.536 190.368 94.536C190.752 94.536 191.168 94.632 191.616 94.824C191.872 95.144 192.16 95.4 192.48 95.592C192.8 95.784 193.12 95.944 193.44 96.072C193.696 96.2 193.92 96.488 194.112 96.936C194.24 97.32 194.432 97.608 194.688 97.8C195.008 98.44 195.168 98.92 195.168 99.24C195.168 99.432 195.168 99.656 195.168 99.912C195.232 100.104 195.296 100.36 195.36 100.68C195.744 102.792 195.584 104.744 194.88 106.536C194.688 106.92 194.624 107.144 194.688 107.208C194.56 107.528 194.464 107.784 194.4 107.976C194.336 108.104 194.24 108.232 194.112 108.36C193.984 108.488 193.888 108.648 193.824 108.84C193.824 108.968 193.792 109.096 193.728 109.224C193.472 109.544 193.216 109.8 192.96 109.992C192.704 110.184 192.448 110.376 192.192 110.568C191.488 110.888 190.944 111.304 190.56 111.816C190.24 111.944 189.952 112.072 189.696 112.2C189.504 112.264 189.28 112.36 189.024 112.488C188.704 112.616 188.416 112.712 188.16 112.776C187.904 112.84 187.616 112.904 187.296 112.968C187.04 113.096 186.752 113.192 186.432 113.256C186.368 113.32 186.272 113.352 186.144 113.352C185.952 113.416 185.728 113.48 185.472 113.544C185.28 113.544 185.088 113.608 184.896 113.736C184.768 113.864 184.512 113.928 184.128 113.928C183.808 113.928 183.584 113.896 183.456 113.832L182.88 113.544C182.304 113.544 181.76 113.672 181.248 113.928C180.864 113.992 180.48 114.024 180.096 114.024C179.904 113.896 179.744 113.8 179.616 113.736C179.488 113.672 179.36 113.608 179.232 113.544C178.72 113.416 178.336 113.224 178.08 112.968L176.352 112.392C176.096 112.392 175.712 112.328 175.2 112.2C174.688 111.88 174.208 111.528 173.76 111.144C173.312 110.76 172.928 110.248 172.608 109.608C172.48 109.032 172.32 108.648 172.128 108.456C172 108.2 171.872 107.88 171.744 107.496C171.808 106.856 171.744 106.28 171.552 105.768C171.424 105.256 171.424 104.776 171.552 104.328C171.552 103.752 171.584 103.304 171.648 102.984C171.712 102.6 171.808 102.216 171.936 101.832C172.064 101.064 172.032 100.424 171.84 99.912C171.904 99.656 171.872 99.272 171.744 98.76C171.552 98.568 171.52 98.216 171.648 97.704C171.52 97.064 171.456 96.584 171.456 96.264C171.456 95.88 171.456 95.464 171.456 95.016C171.392 94.76 171.232 94.44 170.976 94.056C170.208 93.736 169.792 93.576 169.728 93.576C169.216 93.128 168.832 92.808 168.576 92.616C168.384 92.36 168.224 92.2 168.096 92.136L166.944 91.56C166.88 91.56 166.816 91.592 166.752 91.656C166.688 91.656 166.592 91.656 166.464 91.656C166.272 91.656 166.016 91.56 165.696 91.368C165.568 91.304 165.408 91.272 165.216 91.272C164.896 91.272 164.64 91.336 164.448 91.464C164.192 91.336 163.936 91.272 163.68 91.272C163.488 91.208 163.264 91.176 163.008 91.176H161.472C160.256 90.856 159.136 90.696 158.112 90.696C158.112 91.592 158.08 92.104 158.016 92.232C157.952 92.872 158.016 93.448 158.208 93.96C158.272 94.216 158.272 94.536 158.208 94.92C158.208 95.176 158.272 95.56 158.4 96.072C158.464 96.328 158.496 96.552 158.496 96.744C158.56 96.872 158.592 97.032 158.592 97.224C158.464 97.864 158.4 98.28 158.4 98.472C158.464 98.664 158.528 98.824 158.592 98.952C158.656 99.144 158.688 99.368 158.688 99.624V100.584C158.624 100.84 158.624 101.128 158.688 101.448C158.944 101.96 159.072 102.28 159.072 102.408C159.072 102.92 159.104 103.336 159.168 103.656C159.296 103.912 159.424 104.2 159.552 104.52C159.68 104.84 159.776 105.128 159.84 105.384C159.904 105.64 159.968 105.928 160.032 106.248V106.728C160.032 106.856 160.032 107.048 160.032 107.304C160.096 107.496 160.192 107.72 160.32 107.976C160.704 108.488 160.8 109.032 160.608 109.608V110.856L159.552 112.488C159.488 112.616 159.392 112.744 159.264 112.872C159.2 112.936 159.104 113.032 158.976 113.16C158.656 113.224 158.336 113.416 158.016 113.736C157.696 114.056 157.376 114.28 157.056 114.408C156.8 114.472 156.512 114.536 156.192 114.6L155.232 114.888C154.976 114.76 154.72 114.696 154.464 114.696C154.144 114.696 153.792 114.696 153.408 114.696C153.088 114.632 152.832 114.504 152.64 114.312C152.512 114.184 152.256 114.056 151.872 113.928C151.872 113.544 151.712 113.192 151.392 112.872C151.072 112.808 150.848 112.584 150.72 112.2C150.08 111.688 149.6 111.24 149.28 110.856C149.024 110.408 148.896 109.832 148.896 109.128C148.448 108.296 148.288 107.304 148.416 106.152C148.544 104.936 148.864 103.912 149.376 103.08C149.248 102.824 149.28 102.6 149.472 102.408C149.728 101.32 149.824 100.392 149.76 99.624C149.504 99.176 149.408 98.92 149.472 98.856C149.216 98.152 149.024 97.768 148.896 97.704C148.64 97.32 148.576 96.936 148.704 96.552C148.768 96.424 148.8 96.168 148.8 95.784C148.608 95.272 148.576 94.568 148.704 93.672L148.992 91.56C148.992 91.176 148.96 90.888 148.896 90.696C148.768 90.504 148.832 90.28 149.088 90.024C148.96 89.128 148.992 88.264 149.184 87.432C149.248 86.728 149.184 85.896 148.992 84.936C149.12 84.68 149.184 84.232 149.184 83.592C149.056 83.208 149.184 82.824 149.568 82.44C149.76 81.736 149.888 81.192 149.952 80.808C150.08 80.36 150.176 79.976 150.24 79.656C150.112 79.336 150.016 78.92 149.952 78.408C149.952 77.896 150.016 77.448 150.144 77.064V75.72C150.08 75.4 150.112 74.92 150.24 74.28C150.432 73.512 150.528 73.032 150.528 72.84C150.4 72.648 150.4 72.392 150.528 72.072C150.592 71.88 150.624 71.656 150.624 71.4C150.432 70.568 150.368 70.088 150.432 69.96C150.496 69.64 150.496 69.352 150.432 69.096C150.368 68.84 150.272 68.552 150.144 68.232L149.856 67.368C149.792 66.152 149.376 65 148.608 63.912C148.416 63.784 148.192 63.592 147.936 63.336C147.68 63.208 147.36 63.08 146.976 62.952C146.336 62.824 145.856 62.6 145.536 62.28C145.28 61.896 144.896 61.544 144.384 61.224C143.808 60.648 143.328 59.976 142.944 59.208C142.816 58.952 142.816 58.696 142.944 58.44C143.008 58.12 143.008 57.832 142.944 57.576C142.816 56.68 142.944 56.04 143.328 55.656C143.584 55.464 143.808 55.272 144 55.08L144.192 54.888C144.576 54.504 144.8 54.088 144.864 53.64C145.248 53.576 145.6 53.384 145.92 53.064C146.304 52.872 146.688 52.776 147.072 52.776ZM156.768 64.776C156.768 65.224 156.704 65.512 156.576 65.64C156.448 66.088 156.384 66.44 156.384 66.696C156.448 66.888 156.544 67.08 156.672 67.272L156.96 68.616C157.024 68.744 157.056 68.872 157.056 69C157.12 69.064 157.184 69.16 157.248 69.288C157.312 69.352 157.28 69.576 157.152 69.96C157.28 70.152 157.344 70.376 157.344 70.632C157.344 70.824 157.344 71.016 157.344 71.208C157.216 71.592 157.216 72.104 157.344 72.744C157.344 73 157.344 73.224 157.344 73.416C157.408 73.544 157.44 73.64 157.44 73.704C157.568 74.6 157.632 75.368 157.632 76.008C157.696 76.648 157.696 77.288 157.632 77.928C157.44 79.08 157.536 80.232 157.92 81.384C157.6 82.088 157.568 82.6 157.824 82.92C158.08 83.176 158.464 83.368 158.976 83.496H160.032H160.608C161.248 83.496 161.696 83.528 161.952 83.592C162.272 83.528 162.528 83.496 162.72 83.496C162.976 83.496 163.232 83.496 163.488 83.496C163.68 83.56 164 83.592 164.448 83.592H164.928C165.824 83.464 166.784 83.272 167.808 83.016C168.448 82.888 168.928 82.824 169.248 82.824C169.696 82.824 170.176 82.888 170.688 83.016H172.992C173.12 83.016 173.248 83.048 173.376 83.112C173.504 83.112 173.632 83.112 173.76 83.112C174.016 83.112 174.336 83.048 174.72 82.92C175.232 82.92 175.616 82.888 175.872 82.824C176.128 82.696 176.416 82.568 176.736 82.44C176.928 82.184 177.088 81.992 177.216 81.864C177.408 81.672 177.504 81.512 177.504 81.384C177.632 81.192 177.856 80.936 178.176 80.616C178.496 80.296 178.688 80.104 178.752 80.04C179.136 79.464 179.392 79.176 179.52 79.176C179.84 78.728 180.032 78.408 180.096 78.216C180.16 78.024 180.224 77.864 180.288 77.736C180.352 77.608 180.448 77.416 180.576 77.16C180.768 76.904 180.96 76.68 181.152 76.488C181.344 76.36 181.536 76.2 181.728 76.008C181.984 75.752 182.112 75.432 182.112 75.048C182.048 74.728 182.048 74.408 182.112 74.088C182.176 73.768 182.272 73.512 182.4 73.32C182.464 73.128 182.496 72.872 182.496 72.552C182.56 72.232 182.528 71.912 182.4 71.592C182.272 71.08 182.24 70.728 182.304 70.536C182.496 70.024 182.56 69.608 182.496 69.288L182.208 68.04V67.08C181.952 66.312 181.824 65.704 181.824 65.256L181.536 64.2C181.408 64.072 181.28 63.976 181.152 63.912C181.024 63.784 180.896 63.656 180.768 63.528C180.64 63.4 180.512 63.304 180.384 63.24C180.32 63.112 180.224 62.984 180.096 62.856C179.52 62.856 179.072 62.728 178.752 62.472C178.496 62.344 178.24 62.28 177.984 62.28C177.792 62.28 177.536 62.248 177.216 62.184C176.896 62.184 176.672 62.216 176.544 62.28H176.064C175.68 62.28 175.232 62.216 174.72 62.088C174.464 62.024 174.112 61.992 173.664 61.992H173.28C172.64 62.12 172.192 62.216 171.936 62.28C171.744 62.28 171.584 62.248 171.456 62.184C171.328 62.12 171.168 62.088 170.976 62.088C170.784 62.088 170.624 62.12 170.496 62.184C170.176 62.248 169.888 62.312 169.632 62.376C169.376 62.44 169.12 62.472 168.864 62.472C168.672 62.472 168.448 62.536 168.192 62.664C167.168 62.856 166.592 63.016 166.464 63.144C166.4 63.208 166.272 63.24 166.08 63.24C165.888 63.24 165.696 63.144 165.504 62.952C165.376 63.08 165.152 63.144 164.832 63.144C164.512 63.144 164.096 63.08 163.584 62.952H161.664H161.088C160.512 62.952 160.096 62.92 159.84 62.856C159.52 62.856 159.264 62.824 159.072 62.76C157.984 62.76 157.344 63.144 157.152 63.912C156.896 64.104 156.768 64.296 156.768 64.488V64.776ZM160.128 66.6L160.896 66.216C161.344 65.896 161.792 65.704 162.24 65.64C162.944 66.024 163.392 66.312 163.584 66.504C163.84 66.632 164.096 66.856 164.352 67.176C164.48 67.624 164.544 68.04 164.544 68.424C164.544 68.808 164.48 69.256 164.352 69.768C163.84 70.856 163.04 71.4 161.952 71.4C161.824 71.4 161.44 71.336 160.8 71.208C160.16 70.44 159.808 69.64 159.744 68.808C159.68 67.912 159.808 67.176 160.128 66.6ZM169.536 68.04C169.28 68.296 169.088 68.584 168.96 68.904C168.256 68.968 167.808 68.968 167.616 68.904C167.488 68.776 167.392 68.584 167.328 68.328C167.2 67.944 167.136 67.656 167.136 67.464C167.328 67.144 167.552 66.856 167.808 66.6C168.064 66.28 168.384 66.12 168.768 66.12C169.344 66.696 169.6 67.176 169.536 67.56V68.04ZM194.112 83.784C194.112 83.016 194.144 82.536 194.208 82.344C194.336 82.088 194.464 81.96 194.592 81.96C195.168 81.96 195.552 82.28 195.744 82.92C195.872 83.176 195.776 83.464 195.456 83.784C195.264 83.976 195.04 84.072 194.784 84.072C194.656 84.072 194.432 83.976 194.112 83.784ZM207.069 108.648C206.493 108.776 206.205 108.872 206.205 108.936C205.949 109.192 205.757 109.32 205.629 109.32C205.053 109.32 204.701 109 204.573 108.36C204.445 107.72 204.509 107.24 204.765 106.92C204.893 105.64 205.469 104.968 206.493 104.904C207.261 104.968 207.709 105.48 207.837 106.44C207.837 106.888 207.773 107.336 207.645 107.784C207.517 108.168 207.325 108.456 207.069 108.648ZM222.909 101.928C222.845 101.48 222.653 101.16 222.333 100.968C222.141 100.648 222.045 100.296 222.045 99.912C222.173 98.824 222.333 98.088 222.525 97.704C222.781 97.256 223.101 97.032 223.485 97.032C223.549 97.032 223.581 97.064 223.581 97.128C223.645 97.128 223.741 97.128 223.869 97.128L224.445 97.704C225.085 98.344 225.501 98.888 225.693 99.336C225.757 99.464 225.821 99.624 225.885 99.816C225.949 99.944 226.045 100.104 226.173 100.296C226.493 101.064 226.397 101.64 225.885 102.024C225.629 102.28 225.341 102.408 225.021 102.408C224.381 102.216 223.901 102.12 223.581 102.12C223.389 102.12 223.165 102.056 222.909 101.928ZM231.549 115.368C231.229 115.24 230.781 114.952 230.205 114.504C229.629 114.184 229.117 114.024 228.669 114.024C228.029 114.024 227.613 113.992 227.421 113.928C227.229 113.8 226.973 113.672 226.653 113.544C226.525 113.608 226.333 113.64 226.077 113.64C225.821 113.64 225.629 113.608 225.501 113.544C225.181 113.48 224.829 113.384 224.445 113.256C224.061 113.256 223.677 113.288 223.293 113.352C222.973 113.352 222.653 113.416 222.333 113.544L220.221 114.408C219.773 114.6 219.357 114.792 218.973 114.984C218.589 115.112 218.173 115.208 217.725 115.272C217.469 115.528 216.925 115.656 216.093 115.656C215.773 115.656 215.485 115.688 215.229 115.752C215.037 115.752 214.813 115.784 214.557 115.848C213.789 115.72 213.245 115.624 212.925 115.56C212.605 115.496 212.317 115.4 212.061 115.272L210.813 114.696C210.301 113.864 209.949 113.288 209.757 112.968C209.629 112.648 209.629 112.264 209.757 111.816C209.629 110.856 209.693 110.248 209.949 109.992C210.205 109.736 210.365 109.48 210.429 109.224L210.717 108.456C210.781 108.328 210.813 108.232 210.813 108.168C210.877 108.04 210.941 107.912 211.005 107.784C210.877 107.208 210.941 106.728 211.197 106.344C211.453 105.896 211.453 105.384 211.197 104.808C211.069 104.04 211.133 103.464 211.389 103.08C210.877 102.12 210.813 101.448 211.197 101.064C211.645 100.616 211.901 100.136 211.965 99.624C212.285 99.176 212.509 98.824 212.637 98.568C212.765 98.248 212.925 97.928 213.117 97.608C213.117 97.288 213.149 96.968 213.213 96.648C213.277 96.328 213.245 95.944 213.117 95.496C213.053 95.176 212.925 94.952 212.733 94.824C212.413 93.992 212.349 93.352 212.541 92.904C212.669 92.264 212.733 91.816 212.733 91.56V91.08C212.733 90.696 212.701 90.408 212.637 90.216C212.573 89.96 212.541 89.672 212.541 89.352L211.965 87.528C211.837 86.888 211.709 86.28 211.581 85.704C211.453 85.128 211.357 84.68 211.293 84.36C211.421 84.168 211.485 83.688 211.485 82.92L211.197 80.616C211.133 80.168 211.069 79.784 211.005 79.464C211.005 79.08 210.973 78.696 210.909 78.312C210.909 77.48 210.941 77 211.005 76.872C210.813 75.912 210.845 74.856 211.101 73.704C211.229 73.192 211.325 72.68 211.389 72.168C211.453 71.592 211.517 70.984 211.581 70.344C211.453 69.768 211.421 69.448 211.485 69.384C211.293 68.808 211.165 68.168 211.101 67.464C211.037 66.76 211.005 66.088 211.005 65.448C210.877 65.192 210.813 64.936 210.813 64.68C210.813 64.488 210.749 64.264 210.621 64.008C210.749 63.496 210.813 63.144 210.813 62.952C210.813 62.696 210.877 62.472 211.005 62.28C211.261 62.024 211.357 61.672 211.293 61.224L211.965 60.168C212.093 59.848 212.221 59.56 212.349 59.304C212.541 59.048 212.701 58.856 212.829 58.728C213.085 58.536 213.341 58.184 213.597 57.672C213.917 57.544 214.205 57.416 214.461 57.288C214.717 57.16 214.973 57 215.229 56.808C215.549 56.872 216.029 56.904 216.669 56.904C217.053 56.52 217.373 56.328 217.629 56.328C217.757 56.328 217.853 56.36 217.917 56.424C218.109 56.68 218.333 56.904 218.589 57.096C218.909 57.288 219.133 57.384 219.261 57.384C219.645 57.96 219.965 58.44 220.221 58.824C220.477 59.144 220.701 59.464 220.893 59.784C221.533 60.808 221.949 61.64 222.141 62.28C222.397 62.856 222.461 63.432 222.333 64.008C222.461 64.328 222.557 64.68 222.621 65.064C222.749 65.448 222.749 65.8 222.621 66.12C222.813 67.208 222.781 68.2 222.525 69.096C222.333 69.992 222.013 70.824 221.565 71.592C221.373 71.976 221.181 72.552 220.989 73.32C220.797 74.024 220.701 74.6 220.701 75.048V75.912C220.637 76.232 220.605 76.744 220.605 77.448C220.541 77.768 220.509 78.056 220.509 78.312C220.509 78.568 220.509 78.824 220.509 79.08C220.445 79.528 220.445 79.784 220.509 79.848C220.509 80.232 220.477 80.84 220.413 81.672C220.349 82.44 220.253 83.272 220.125 84.168C219.997 85.064 219.901 85.96 219.837 86.856C219.773 87.688 219.677 88.296 219.549 88.68C219.677 89.448 219.677 90.248 219.549 91.08C219.485 91.848 219.389 92.584 219.261 93.288C219.325 93.416 219.357 93.608 219.357 93.864C219.421 94.12 219.389 94.312 219.261 94.44C219.389 94.696 219.517 95.144 219.645 95.784V97.224C219.709 97.416 219.805 97.64 219.933 97.896C219.997 98.024 219.965 98.28 219.837 98.664C219.709 98.984 219.709 99.272 219.837 99.528C219.901 99.784 219.837 100.008 219.645 100.2C219.709 100.328 219.805 100.648 219.933 101.16C219.933 101.416 219.997 101.8 220.125 102.312C220.381 102.696 220.541 102.952 220.605 103.08C220.669 103.208 220.733 103.336 220.797 103.464C221.117 103.912 221.469 104.328 221.853 104.712C222.237 105.096 222.653 105.352 223.101 105.48H223.869C224.573 105.48 225.053 105.448 225.309 105.384C225.501 105.32 225.757 105.288 226.077 105.288C226.589 105.288 227.133 105.384 227.709 105.576C227.901 105.64 228.125 105.672 228.381 105.672C228.637 105.672 228.957 105.64 229.341 105.576C229.725 105.512 230.045 105.416 230.301 105.288C230.429 105.288 230.589 105.256 230.781 105.192C230.973 105.128 231.165 105.096 231.357 105.096C231.869 105.032 232.221 105 232.413 105C232.669 105 232.893 104.968 233.085 104.904C233.213 104.84 233.405 104.808 233.661 104.808C233.917 104.808 234.109 104.84 234.237 104.904C234.941 105.352 235.709 105.576 236.541 105.576C236.989 105.576 237.309 105.48 237.501 105.288C237.565 105.032 237.821 104.84 238.269 104.712C238.589 104.712 238.845 104.616 239.037 104.424C239.101 104.36 239.197 104.328 239.325 104.328C239.709 104.328 240.029 104.456 240.285 104.712C240.797 105.288 241.181 105.736 241.437 106.056C241.693 106.376 241.885 106.6 242.013 106.728C242.141 106.856 242.269 106.984 242.397 107.112C242.525 107.24 242.653 107.368 242.781 107.496C242.973 108.2 243.005 108.904 242.877 109.608C242.813 109.928 242.749 110.248 242.685 110.568C242.685 110.824 242.685 111.112 242.685 111.432C242.429 111.688 242.301 111.912 242.301 112.104C242.173 112.424 242.013 112.648 241.821 112.776C241.373 113.288 241.181 113.544 241.245 113.544V113.832C240.925 114.088 240.637 114.312 240.381 114.504C240.189 114.696 239.965 114.888 239.709 115.08C239.453 115.208 239.197 115.368 238.941 115.56C238.749 115.688 238.557 115.848 238.365 116.04C238.045 116.104 237.821 116.136 237.693 116.136C237.565 116.136 237.469 116.136 237.405 116.136C236.573 116.328 236.029 116.424 235.773 116.424C235.453 116.424 235.165 116.392 234.909 116.328C234.717 116.264 234.461 116.168 234.141 116.04C233.053 115.592 232.189 115.368 231.549 115.368ZM229.053 97.608C229.373 97.608 229.661 97.672 229.917 97.8C230.237 97.928 230.429 98.152 230.493 98.472C230.493 98.792 230.397 99.112 230.205 99.432C230.013 99.752 229.757 99.912 229.437 99.912C229.181 99.912 228.989 99.88 228.861 99.816L228.381 98.856C228.189 98.344 228.157 98.056 228.285 97.992C228.477 97.864 228.733 97.736 229.053 97.608Z" fill="black"/>
<path d="M52.6051 32.9924C48.624 36.2256 47.3632 38.1373 43.5739 47.599C35.6578 67.3546 32.0305 80.1268 26.8242 107.323C20.1001 142.091 20.5721 175.991 28.0032 193.332C31.9511 202.387 35.6209 207.94 41.1879 213.243C47.0797 218.822 65.1854 228.276 98.1393 243.008C107.028 246.942 122.144 254.315 131.722 259.302C154.47 271.312 157.297 272.6 165.233 274.696C174.712 277.174 184.078 276.942 192.226 274.086C198.015 272.02 199.54 270.893 204.895 264.632C209.973 258.694 211.825 255.326 216.189 244.208C212.728 238.74 218.339 264.956 216.891 214.553L208.201 183.003C202.797 174.666 197.467 168.539 190.448 162.746C186.344 159.343 182.07 156.355 180.943 156.142C179.909 155.82 178.959 155.291 178.927 154.89C178.895 154.49 174.601 152.511 169.396 150.503C164.192 148.495 159.79 146.424 159.541 145.839C157.685 140.245 154.297 133.16 148.873 123.314C141.335 109.707 137.921 101.013 134.562 86.6743C129.777 65.8017 125.615 57.8709 117.164 53.0968C111.255 49.835 102.591 50.012 97.5071 53.3318C89.1724 58.9211 87.5862 66.9006 90.4008 89.6399C91.4089 98.5234 92.7019 107.183 93.1538 109.061L94.1259 112.408L90.9428 110.443C84.0434 106.151 76.3429 105.749 70.3801 109.44C67.3063 111.394 67.2011 112.61 70.3479 98.8687C75.8849 74.5669 77.381 47.6622 73.7627 37.6747C70.2844 28.1796 61.2455 26.1707 52.6051 32.9924ZM60.6008 40.9241C60.5346 48.9856 57.1385 58.3157 54.0011 59.4685C46.7237 61.8529 45.6354 58.3131 50.216 47.3793C53.2696 40.0902 56.9469 35.5717 59.847 35.2432C60.3484 35.2038 60.6553 37.798 60.6008 40.9241ZM70.0499 46.8283C71.794 63.7102 69.3503 81.2232 60.2049 119.806C52.2586 153.159 52.3876 152.243 54.3118 153.602C56.7691 155.323 58.2831 152.787 60.5077 143.951C63.5572 131.527 69.1215 119.005 72.8257 116.096C79.6562 110.625 88.5422 113.25 94.0101 122.387C95.6365 125.079 97.1339 128.688 97.269 130.389C97.412 132.19 94.8071 140.049 90.8173 149.526C84.0587 166.069 78.2185 182.741 78.4172 185.243C78.5364 186.744 81.3551 187.933 82.5951 187.03C82.9724 186.698 84.5836 182.845 85.9466 178.408C89.5244 167.553 107.67 124.134 109.954 121.135C112.423 117.92 118.139 117.471 122.288 120.166C125.796 122.408 127.667 124.376 131.089 129.343L133.481 132.781L130.97 138.013C125.68 148.902 112.675 183.357 113.38 184.611C113.744 185.388 114.803 186.01 115.906 185.923C117.31 185.813 119.812 180.481 126.431 163.445C135.766 139.953 138.517 135.205 142.422 136.107C148.374 137.351 153.242 144.018 155.889 154.485L157.649 161.396L154.474 169.701C151.315 178.207 151.276 181.533 154.438 180.681C156.712 180.099 162.606 166.646 162.404 162.835C162.079 158.731 164.469 158.342 171.643 161.001C181.11 164.588 193.246 175.115 198.63 184.46C204.238 194.09 207.199 203.424 208.514 214.902C210.578 233.269 207.455 247.311 199.33 256.811C193.144 264.044 190.054 265.797 181.932 266.435C173.809 267.074 175.361 267.556 148.18 256.902C104.551 239.886 55.5396 217.352 47.122 210.46C41.7188 205.95 35.7495 196.852 32.7597 188.427C25.5072 168.252 27.3692 129.435 37.4269 88.3634C39.9413 78.0955 43.4922 65.6314 44.0462 64.9836C44.1385 64.8757 45.9832 65.2343 48.2449 65.7615C52.8845 67.0083 57.0246 65.7768 60.1797 62.3064C62.8731 59.3758 66.4955 47.8124 66.1459 43.4089C65.7644 38.6051 66.5924 36.3246 68.1075 37.6154C68.7568 38.1686 69.6923 42.3247 70.0499 46.8283ZM110.764 57.6278C116.99 61.0661 121.315 69.7897 127.436 90.9602C132.32 107.998 137.484 122.195 140.464 126.694C141.386 128.132 141.217 128.548 139.813 128.658C138.71 128.745 136.854 126.977 134.919 124.209C129.09 115.603 122.383 111.196 115.332 111.347C108.89 111.551 108.104 111.814 104.796 115.901L101.665 119.671L100.841 116.916C97.2163 104.311 93.8136 74.1656 95.2628 67.0025C96.1929 62.1963 97.6304 59.9686 101.182 57.6755C104.934 55.3667 106.546 55.3408 110.764 57.6278Z" fill="black"/>
</g>
<defs>
<clipPath id="clip0_2_21">
<rect width="256" height="154" fill="white"/>
</clipPath>
</defs>
</svg>
